<svg id="splitsvg" xmlns="http://www.w3.org/2000/svg" xmlns:xlink="http://www.w3.org/1999/xlink" version="1.1" width="1380" height="400"><g id="svgg"><path id="path0" d="M62.340 3.518 C 59.360 5.493,55.318 10.461,53.125 14.846 L 49.219 22.656 49.219 200.000 L 49.219 377.344 53.125 385.154 C 60.615 400.129,76.925 404.530,94.536 396.329 C 105.816 391.076,329.153 238.005,337.224 229.994 C 356.249 211.114,354.733 184.222,333.643 166.484 C 321.297 156.100,104.057 8.103,94.910 3.844 C 83.811 -1.323,69.858 -1.463,62.340 3.518  M -25 0 L -5 0 L -5 20 L -25 20 Z M 405 0 L 425 0 L 425 20 L 405 20 Z" stroke="none" fill="#000000" fill-rule="evenodd" transform="translate(30,0)"></path></g></svg>